<svg width="82" height="98" viewBox="0 0 82 98" fill="none" xmlns="http://www.w3.org/2000/svg">
<g transform="translate(0,9)" filter="url(#c)">
<path d="m41 70c12.15 0 22-9.8497 22-22s-9.8497-22-22-22-22 9.8497-22 22 9.8497 22 22 22z" clip-rule="evenodd" fill="#000" fill-opacity=".01" fill-rule="evenodd"/>
</g>
<g transform="translate(0,9)" filter="url(#b)">
<path d="m41 70c16.568 0 30-13.432 30-30s-13.432-30-30-30-30 13.432-30 30 13.432 30 30 30z" clip-rule="evenodd" fill="#2196f3" fill-rule="evenodd"/>
<path d="m69 40c0 15.464-12.536 28-28 28s-28-12.536-28-28 12.536-28 28-28 28 12.536 28 28z" stroke="#42a5f5" stroke-width="4"/>
</g>
<mask id="a" x="11" y="10" width="60" height="60" maskUnits="userSpaceOnUse">
<path d="m41 70c16.568 0 30-13.432 30-30s-13.432-30-30-30-30 13.432-30 30 13.432 30 30 30z" clip-rule="evenodd" fill="#fff" fill-rule="evenodd"/>
</mask>
<g transform="translate(0,9)" mask="url(#a)" stroke="#42a5f5" stroke-width="4">
<path d="m13.714 32.875h53.822" stroke-linecap="square"/>
<path d="m13.714 48.625h53.822" stroke-linecap="square"/>
<path d="m40.25 14.5s-9.9622 11.578-9.7465 26.25c0.2156 14.672 9.7465 24.75 9.7465 24.75" stroke-linecap="round" stroke-linejoin="round"/>
<path d="m41 14.5s9.9622 11.578 9.7465 26.25c-0.2156 14.672-9.7465 24.75-9.7465 24.75" stroke-linecap="round" stroke-linejoin="round"/>
</g>
<defs>
<filter id="c" x="8" y="23" width="66" height="66" color-interpolation-filters="sRGB" filterUnits="userSpaceOnUse">
<feFlood flood-opacity="0" result="BackgroundImageFix"/>
<feColorMatrix in="SourceAlpha" result="hardAlpha" values="0 0 0 0 0 0 0 0 0 0 0 0 0 0 0 0 0 0 127 0"/>
<feOffset dy="8"/>
<feGaussianBlur stdDeviation="5.5"/>
<feColorMatrix values="0 0 0 0 0.215686 0 0 0 0 0.407843 0 0 0 0 0.556863 0 0 0 0.25 0"/>
<feBlend in2="BackgroundImageFix" result="effect1_dropShadow_1_706"/>
<feBlend in="SourceGraphic" in2="effect1_dropShadow_1_706" result="shape"/>
</filter>
<filter id="b" x="0" y="0" width="82" height="82" color-interpolation-filters="sRGB" filterUnits="userSpaceOnUse">
<feFlood flood-opacity="0" result="BackgroundImageFix"/>
<feColorMatrix in="SourceAlpha" result="hardAlpha" values="0 0 0 0 0 0 0 0 0 0 0 0 0 0 0 0 0 0 127 0"/>
<feOffset dy="1"/>
<feGaussianBlur stdDeviation="5.5"/>
<feColorMatrix values="0 0 0 0 0.215686 0 0 0 0 0.407843 0 0 0 0 0.556863 0 0 0 0.3 0"/>
<feBlend in2="BackgroundImageFix" result="effect1_dropShadow_1_706"/>
<feBlend in="SourceGraphic" in2="effect1_dropShadow_1_706" result="shape"/>
</filter>
</defs>
</svg>
